<mxfile host="app.diagrams.net" agent="Mozilla/5.0 (Windows NT 10.0; Win64; x64) AppleWebKit/537.36 (KHTML, like Gecko) Chrome/141.0.0.0 Safari/537.36" version="28.2.7">
  <diagram name="Trang-1" id="n2l8kIQzBQYOINg-zM32">
    <mxGraphModel dx="1042" dy="692" grid="1" gridSize="10" guides="1" tooltips="1" connect="1" arrows="1" fold="1" page="1" pageScale="1" pageWidth="827" pageHeight="1169" math="0" shadow="0">
      <root>
        <mxCell id="MweNgloDBVYiPMGRzq_C-0" />
        <mxCell id="MweNgloDBVYiPMGRzq_C-1" parent="MweNgloDBVYiPMGRzq_C-0" />
        <mxCell id="7l2hoxt4p9JnFRU-gYa4-0" value="bắt đầu" style="ellipse;whiteSpace=wrap;html=1;" parent="MweNgloDBVYiPMGRzq_C-1" vertex="1">
          <mxGeometry x="340" y="20" width="120" height="80" as="geometry" />
        </mxCell>
        <mxCell id="7l2hoxt4p9JnFRU-gYa4-3" style="edgeStyle=orthogonalEdgeStyle;rounded=0;orthogonalLoop=1;jettySize=auto;html=1;exitX=0.5;exitY=1;exitDx=0;exitDy=0;" parent="MweNgloDBVYiPMGRzq_C-1" source="7l2hoxt4p9JnFRU-gYa4-1" edge="1">
          <mxGeometry relative="1" as="geometry">
            <mxPoint x="390" y="260" as="targetPoint" />
          </mxGeometry>
        </mxCell>
        <mxCell id="7l2hoxt4p9JnFRU-gYa4-1" value="nhập 2 số nguyên a, b" style="shape=parallelogram;perimeter=parallelogramPerimeter;whiteSpace=wrap;html=1;fixedSize=1;" parent="MweNgloDBVYiPMGRzq_C-1" vertex="1">
          <mxGeometry x="310" y="140" width="160" height="70" as="geometry" />
        </mxCell>
        <mxCell id="7l2hoxt4p9JnFRU-gYa4-2" value="" style="endArrow=classic;html=1;rounded=0;exitX=0.5;exitY=1;exitDx=0;exitDy=0;" parent="MweNgloDBVYiPMGRzq_C-1" source="7l2hoxt4p9JnFRU-gYa4-0" edge="1">
          <mxGeometry width="50" height="50" relative="1" as="geometry">
            <mxPoint x="390" y="380" as="sourcePoint" />
            <mxPoint x="400" y="140" as="targetPoint" />
          </mxGeometry>
        </mxCell>
        <mxCell id="xhvXuannrQBQO4RMrvDz-1" style="edgeStyle=orthogonalEdgeStyle;rounded=0;orthogonalLoop=1;jettySize=auto;html=1;exitX=1;exitY=0.5;exitDx=0;exitDy=0;" parent="MweNgloDBVYiPMGRzq_C-1" source="xhvXuannrQBQO4RMrvDz-0" edge="1">
          <mxGeometry relative="1" as="geometry">
            <mxPoint x="500" y="300" as="targetPoint" />
          </mxGeometry>
        </mxCell>
        <mxCell id="xhvXuannrQBQO4RMrvDz-2" value="Đ" style="edgeLabel;html=1;align=center;verticalAlign=middle;resizable=0;points=[];" parent="xhvXuannrQBQO4RMrvDz-1" connectable="0" vertex="1">
          <mxGeometry x="-0.0457" y="3" relative="1" as="geometry">
            <mxPoint as="offset" />
          </mxGeometry>
        </mxCell>
        <mxCell id="xhvXuannrQBQO4RMrvDz-4" style="edgeStyle=orthogonalEdgeStyle;rounded=0;orthogonalLoop=1;jettySize=auto;html=1;exitX=0;exitY=0.5;exitDx=0;exitDy=0;" parent="MweNgloDBVYiPMGRzq_C-1" source="xhvXuannrQBQO4RMrvDz-0" edge="1">
          <mxGeometry relative="1" as="geometry">
            <mxPoint x="290" y="300" as="targetPoint" />
          </mxGeometry>
        </mxCell>
        <mxCell id="xhvXuannrQBQO4RMrvDz-5" value="S" style="edgeLabel;html=1;align=center;verticalAlign=middle;resizable=0;points=[];" parent="xhvXuannrQBQO4RMrvDz-4" connectable="0" vertex="1">
          <mxGeometry x="-0.2133" y="1" relative="1" as="geometry">
            <mxPoint as="offset" />
          </mxGeometry>
        </mxCell>
        <mxCell id="xhvXuannrQBQO4RMrvDz-0" value="a &amp;gt; b" style="rhombus;whiteSpace=wrap;html=1;" parent="MweNgloDBVYiPMGRzq_C-1" vertex="1">
          <mxGeometry x="350" y="260" width="80" height="80" as="geometry" />
        </mxCell>
        <mxCell id="xhvXuannrQBQO4RMrvDz-3" value="b min" style="shape=parallelogram;perimeter=parallelogramPerimeter;whiteSpace=wrap;html=1;fixedSize=1;" parent="MweNgloDBVYiPMGRzq_C-1" vertex="1">
          <mxGeometry x="490" y="270" width="120" height="60" as="geometry" />
        </mxCell>
        <mxCell id="xhvXuannrQBQO4RMrvDz-8" style="edgeStyle=orthogonalEdgeStyle;rounded=0;orthogonalLoop=1;jettySize=auto;html=1;exitX=0.5;exitY=1;exitDx=0;exitDy=0;entryX=0;entryY=0.5;entryDx=0;entryDy=0;" parent="MweNgloDBVYiPMGRzq_C-1" source="xhvXuannrQBQO4RMrvDz-6" target="xhvXuannrQBQO4RMrvDz-7" edge="1">
          <mxGeometry relative="1" as="geometry" />
        </mxCell>
        <mxCell id="xhvXuannrQBQO4RMrvDz-6" value="a min" style="shape=parallelogram;perimeter=parallelogramPerimeter;whiteSpace=wrap;html=1;fixedSize=1;" parent="MweNgloDBVYiPMGRzq_C-1" vertex="1">
          <mxGeometry x="180" y="270" width="120" height="60" as="geometry" />
        </mxCell>
        <mxCell id="xhvXuannrQBQO4RMrvDz-7" value="kết thúc" style="ellipse;whiteSpace=wrap;html=1;" parent="MweNgloDBVYiPMGRzq_C-1" vertex="1">
          <mxGeometry x="330" y="410" width="120" height="80" as="geometry" />
        </mxCell>
        <mxCell id="xhvXuannrQBQO4RMrvDz-10" value="" style="endArrow=none;html=1;rounded=0;entryX=0.44;entryY=1.063;entryDx=0;entryDy=0;entryPerimeter=0;" parent="MweNgloDBVYiPMGRzq_C-1" target="xhvXuannrQBQO4RMrvDz-3" edge="1">
          <mxGeometry width="50" height="50" relative="1" as="geometry">
            <mxPoint x="543" y="450" as="sourcePoint" />
            <mxPoint x="440" y="330" as="targetPoint" />
          </mxGeometry>
        </mxCell>
        <mxCell id="xhvXuannrQBQO4RMrvDz-11" value="" style="endArrow=classic;html=1;rounded=0;entryX=1;entryY=0.5;entryDx=0;entryDy=0;" parent="MweNgloDBVYiPMGRzq_C-1" target="xhvXuannrQBQO4RMrvDz-7" edge="1">
          <mxGeometry width="50" height="50" relative="1" as="geometry">
            <mxPoint x="540" y="450" as="sourcePoint" />
            <mxPoint x="440" y="330" as="targetPoint" />
          </mxGeometry>
        </mxCell>
      </root>
    </mxGraphModel>
  </diagram>
</mxfile>
